#!OML:ASF X:\für Bonn\!DataBase\2005_08_11_Bastian_Final\c3d\Bastian.ASF
:FULLY-SPECIFIED
:DEGREES
223
root 12.8159 17.2803 -1.89972 898.606 76.6491 -177.713
lowerback 27.0777 -1.80171 8.12045
upperback 14.5961 1.52348 2.75859
thorax 1.48907 1.92904 -1.94309
lowerneck -9.60281 -8.63547 -3.22152
upperneck -15.4442 -10.2582 5.79664
head -2.88056 -4.80827 2.33692
rclavicle -2.46493e-014 -3.65764e-014
rhumerus -18.7074 24.4712 -83.4814
rradius 31.1293
rwrist -2.51204
rhand -15.6877 3.93919
rfingers 7.12502
rthumb 10.5014 -25.7785
lclavicle -2.46493e-014 -3.65764e-014
lhumerus -22.3096 -20.3745 91.3291
lradius 29.2645
lwrist 23.9364
lhand -14.4982 -6.86571
lfingers 7.12502
lthumb 11.6487 22.7905
rfemur 5.48902 -6.02857 23.651
rtibia 29.5135
rfoot -21.7913 -15.9727
rtoes -3.77702
lfemur -27.5726 3.92034 -19.2187
ltibia 38.3525
lfoot -9.25926 -4.54336
ltoes -21.9722
224
root 12.9632 17.287 -1.9064 898.917 76.4324 -177.483
lowerback 26.4077 -1.63069 7.87215
upperback 14.3417 1.5513 2.63182
thorax 1.50102 1.89901 -1.94503
lowerneck -9.36249 -8.67203 -3.30066
upperneck -15.1568 -10.3151 6.0388
head -2.80095 -4.85168 2.42694
rclavicle -2.22639e-014 -4.92986e-014
rhumerus -19.3063 24.9202 -84.0586
rradius 30.8149
rwrist -3.04569
rhand -15.2499 3.72659
rfingers 7.12502
rthumb 10.9237 -25.9692
lclavicle -2.22639e-014 -4.92986e-014
lhumerus -22.6693 -19.6432 91.3195
lradius 28.2172
lwrist 23.8768
lhand -14.4175 -6.72762
lfingers 7.12502
lthumb 11.7265 22.9242
rfemur 6.53081 -5.89617 23.8671
rtibia 28.3447
rfoot -21.6067 -16.2519
rtoes -3.88097
lfemur -27.6304 4.01867 -19.1248
ltibia 37.0256
lfoot -9.50392 -4.36667
ltoes -22.6185
225
root 13.1121 17.2894 -1.91486 899.126 76.2188 -177.357
lowerback 25.6985 -1.45129 7.59359
upperback 14.1158 1.58721 2.51619
thorax 1.56719 1.87515 -1.91615
lowerneck -9.10044 -8.72237 -3.44094
upperneck -14.9212 -10.3795 6.3454
head -2.73611 -4.89628 2.55142
rclavicle 6.04305e-014 -1.43125e-014
rhumerus -19.8484 25.343 -84.6001
rradius 30.4862
rwrist -3.52451
rhand -14.8335 3.4745
rfingers 7.12502
rthumb 11.3253 -26.1997
lclavicle 6.04305e-014 -1.43125e-014
lhumerus -22.9659 -19.0722 91.343
lradius 27.1133
lwrist 23.8466
lhand -14.3107 -6.60414
lfingers 7.12502
lthumb 11.8295 23.0417
rfemur 7.55168 -5.71978 24.0714
rtibia 27.2223
rfoot -21.4107 -16.5788
rtoes -4.01608
lfemur -27.6486 4.00675 -19.0332
ltibia 35.7572
lfoot -9.79604 -4.23056
ltoes -23.0737
226
root 13.2622 17.2896 -1.92556 899.301 76.0477 -177.242
lowerback 25.0136 -1.27193 7.31866
upperback 13.8784 1.63048 2.37865
thorax 1.61475 1.85506 -1.91438
lowerneck -8.7912 -8.77663 -3.53312
upperneck -14.6599 -10.4624 6.6171
head -2.674 -4.95384 2.65793
rclavicle 8.5875e-014 3.18055e-014
rhumerus -20.3942 25.6996 -85.1658
rradius 30.1419
rwrist -3.93062
rhand -14.386 3.29169
rfingers 7.12502
rthumb 11.7569 -26.3584
lclavicle 8.5875e-014 3.18055e-014
lhumerus -23.3533 -18.7215 91.3723
lradius 26.0278
lwrist 23.9625
lhand -14.2054 -6.60778
lfingers 7.12502
lthumb 11.9311 23.0322
rfemur 8.57337 -5.55243 24.2593
rtibia 26.1472
rfoot -21.2113 -16.8969
rtoes -4.55224
lfemur -27.6109 3.95984 -18.9225
ltibia 34.5448
lfoot -10.1252 -4.15472
ltoes -23.0037
227
root 13.4133 17.2873 -1.93762 899.34 75.8845 -177.247
lowerback 24.3438 -1.10036 7.00853
upperback 13.6603 1.66679 2.23734
thorax 1.67909 1.83255 -1.89347
lowerneck -8.56594 -8.83052 -3.69973
upperneck -14.318 -10.5368 6.95024
head -2.56317 -5.00401 2.78907
rclavicle -4.29375e-014 3.10104e-014
rhumerus -20.9204 26.1353 -85.713
rradius 29.8307
rwrist -4.34852
rhand -13.9147 3.10779
rfingers 7.12502
rthumb 12.2113 -26.5158
lclavicle -4.29375e-014 3.10104e-014
lhumerus -23.6961 -18.276 91.3797
lradius 24.9379
lwrist 23.9211
lhand -13.9638 -6.52368
lfingers 7.12502
lthumb 12.164 23.1027
rfemur 9.59765 -5.26808 24.4534
rtibia 25.1091
rfoot -21.0056 -17.291
rtoes -4.79459
lfemur -27.5693 3.91849 -18.8466
ltibia 33.3833
lfoot -10.3878 -4.26151
ltoes -22.5676
228
root 13.566 17.2836 -1.95231 899.404 75.777 -177.211
lowerback 23.6941 -0.923476 6.71703
upperback 13.4423 1.72114 2.07556
thorax 1.74095 1.82141 -1.9079
lowerneck -8.32766 -8.87628 -3.74717
upperneck -13.9836 -10.6155 7.20518
head -2.46782 -5.06029 2.87613
rclavicle -1.90833e-014 -3.81667e-014
rhumerus -21.4551 26.4933 -86.3051
rradius 29.5258
rwrist -4.71628
rhand -13.4765 2.88917
rfingers 7.12502
rthumb 12.6338 -26.7087
lclavicle -1.90833e-014 -3.81667e-014
lhumerus -24.0486 -17.7789 91.3274
lradius 23.8037
lwrist 23.6802
lhand -13.7008 -6.54712
lfingers 7.12502
lthumb 12.4176 23.064
rfemur 10.6146 -4.93798 24.6614
rtibia 24.1038
rfoot -20.778 -17.7181
rtoes -5.41672
lfemur -27.514 3.87587 -18.7545
ltibia 32.2665
lfoot -10.6081 -4.46801
ltoes -21.9148
229
root 13.7197 17.2772 -1.96848 899.318 75.6706 -177.341
lowerback 23.0261 -0.757116 6.35129
upperback 13.2285 1.75235 1.92293
thorax 1.81427 1.79479 -1.86384
lowerneck -8.1844 -8.92188 -3.88208
upperneck -13.5085 -10.6942 7.48547
head -2.30276 -5.1123 2.97456
rclavicle -2.06736e-014 2.06736e-014
rhumerus -21.99 26.7781 -86.8507
rradius 29.2281
rwrist -4.93257
rhand -13.0147 2.73786
rfingers 7.12502
rthumb 13.079 -26.832
lclavicle -2.06736e-014 2.06736e-014
lhumerus -24.3848 -17.1946 91.2915
lradius 22.5833
lwrist 23.2084
lhand -13.4568 -6.64215
lfingers 7.12502
lthumb 12.6529 22.9546
rfemur 11.6051 -4.5832 24.8328
rtibia 23.1387
rfoot -20.546 -18.1186
rtoes -5.90633
lfemur -27.4606 3.81323 -18.7086
ltibia 31.1835
lfoot -10.7568 -4.76675
ltoes -21.1
230
root 13.8735 17.2697 -1.98586 899.167 75.5809 -177.548
lowerback 22.3729 -0.585464 5.97702
upperback 13.0074 1.79651 1.75772
thorax 1.87687 1.77449 -1.83037
lowerneck -8.08821 -8.97552 -3.96862
upperneck -12.9627 -10.7949 7.71761
head -2.11073 -5.17549 3.04293
rclavicle -2.38542e-015 -4.45278e-014
rhumerus -22.5857 26.991 -87.4121
rradius 28.98
rwrist -4.9952
rhand -12.6679 2.63648
rfingers 7.12502
rthumb 13.4133 -26.9117
lclavicle -2.38542e-015 -4.45278e-014
lhumerus -24.7631 -16.749 91.2784
lradius 21.4344
lwrist 22.6965
lhand -13.2553 -6.70324
lfingers 7.12502
lthumb 12.8471 22.8814
rfemur 12.567 -4.20128 25.0008
rtibia 22.2179
rfoot -20.2924 -18.5813
rtoes -6.41933
lfemur -27.4106 3.71399 -18.6755
ltibia 30.1506
lfoot -10.8885 -5.09701
ltoes -20.7083
231
root 14.0294 17.2592 -2.0062 898.768 75.5316 -178.018
lowerback 21.6935 -0.400038 5.54954
upperback 12.7934 1.85296 1.56302
thorax 1.96374 1.75958 -1.79829
lowerneck -7.96667 -9.02366 -4.04444
upperneck -12.4267 -10.8896 7.96979
head -1.92684 -5.23596 3.11851
rclavicle 1.27222e-014 -6.04305e-014
rhumerus -23.2033 27.3518 -88.0047
rradius 28.7852
rwrist -5.29065
rhand -12.4654 2.54422
rfingers 7.12502
rthumb 13.6085 -26.991
lclavicle 1.27222e-014 -6.04305e-014
lhumerus -25.1085 -16.2858 91.2429
lradius 20.3747
lwrist 22.0642
lhand -12.9917 -6.40947
lfingers 7.12502
lthumb 13.1012 23.159
rfemur 13.5143 -3.7769 25.0988
rtibia 21.3489
rfoot -20.008 -19.0446
rtoes -6.93806
lfemur -27.3545 3.61865 -18.7139
ltibia 29.1751
lfoot -10.9347 -5.49101
ltoes -20.9573
232
root 14.1858 17.2477 -2.02752 898.29 75.4823 -178.58
lowerback 21.0305 -0.236343 5.08719
upperback 12.5692 1.88423 1.35765
thorax 2.03175 1.73008 -1.75249
lowerneck -7.76178 -9.05237 -4.10803
upperneck -11.9799 -10.957 8.23139
head -1.78909 -5.28364 3.20507
rclavicle -3.06128e-014 -1.82882e-014
rhumerus -23.7824 27.6454 -88.6047
rradius 28.5853
rwrist -5.5711
rhand -12.3088 2.45238
rfingers 7.12502
rthumb 13.7594 -27.0726
lclavicle -3.06128e-014 -1.82882e-014
lhumerus -25.4368 -15.5599 91.1155
lradius 19.2437
lwrist 20.9781
lhand -12.673 -6.21343
lfingers 7.12502
lthumb 13.4084 23.3351
rfemur 14.4393 -3.3937 25.1663
rtibia 20.516
rfoot -19.6561 -19.4766
rtoes -7.85627
lfemur -27.311 3.49313 -18.7733
ltibia 28.2936
lfoot -10.9167 -5.89606
ltoes -21.3853
233
root 14.3431 17.2348 -2.05038 897.676 75.4381 -179.298
lowerback 20.3606 -0.0634132 4.5511
upperback 12.3315 1.92233 1.16973
thorax 2.08841 1.69861 -1.64671
lowerneck -7.48823 -9.0635 -4.1982
upperneck -11.5595 -11.0028 8.4872
head -1.67229 -5.3203 3.30047
rclavicle 6.0033e-014 3.97569e-014
rhumerus -24.333 27.8062 -89.1276
rradius 28.3643
rwrist -5.79107
rhand -12.1424 2.43112
rfingers 7.12502
rthumb 13.9198 -27.083
lclavicle 6.0033e-014 3.97569e-014
lhumerus -25.7747 -14.7386 90.9785
lradius 18.1324
lwrist 19.7636
lhand -12.2882 -6.02709
lfingers 7.12502
lthumb 13.7793 23.4966
rfemur 15.3532 -2.95843 25.2083
rtibia 19.6981
rfoot -19.3262 -19.9351
rtoes -8.66477
lfemur -27.2757 3.30344 -18.8547
ltibia 27.5255
lfoot -10.8846 -6.2871
ltoes -21.5041
234
root 14.5019 17.221 -2.0763 897.051 75.3915 -180.014
lowerback 19.7035 0.0749744 4.03175
upperback 12.109 1.9309 0.963516
thorax 2.1591 1.65666 -1.5631
lowerneck -7.19945 -9.05955 -4.24679
upperneck -11.1907 -11.0267 8.75267
head -1.57855 -5.34702 3.3964
rclavicle -1.47101e-014 -2.38542e-015
rhumerus -24.8922 28.1128 -89.7067
rradius 28.2367
rwrist -6.14241
rhand -12.0507 2.32829
rfingers 7.12502
rthumb 14.0082 -27.1797
lclavicle -1.47101e-014 -2.38542e-015
lhumerus -26.0876 -13.7301 90.726
lradius 17.0682
lwrist 18.3756
lhand -11.8312 -5.84305
lfingers 7.12502
lthumb 14.2197 23.6502
rfemur 16.2974 -2.60453 25.217
rtibia 18.8653
rfoot -18.9178 -20.3176
rtoes -9.6977
lfemur -27.2466 3.06688 -18.9272
ltibia 26.937
lfoot -10.7908 -6.59722
ltoes -21.4696
235
root 14.6606 17.2035 -2.10368 896.642 75.3202 -180.479
lowerback 19.1192 0.184626 3.5448
upperback 11.8801 1.92239 0.812146
thorax 2.18779 1.60691 -1.43831
lowerneck -6.94752 -9.04466 -4.36783
upperneck -10.7809 -11.0351 9.01385
head -1.46253 -5.36168 3.50075
rclavicle 1.98785e-015 -1.74931e-014
rhumerus -25.3785 28.2089 -90.1505
rradius 28.0623
rwrist -6.16125
rhand -11.8958 2.26285
rfingers 7.12502
rthumb 14.1575 -27.2348
lclavicle 1.98785e-015 -1.74931e-014
lhumerus -26.4254 -12.5729 90.4832
lradius 16.0665
lwrist 16.7497
lhand -11.4097 -5.66557
lfingers 7.12502
lthumb 14.6258 23.7987
rfemur 17.293 -2.25633 25.3094
rtibia 17.9944
rfoot -18.4893 -20.7301
rtoes -11.022
lfemur -27.2351 2.80051 -18.9327
ltibia 26.5605
lfoot -10.6418 -6.83754
ltoes -21.2161
236
root 14.8212 17.1872 -2.13386 896.209 75.2743 -180.957
lowerback 18.5516 0.28158 3.07956
upperback 11.6482 1.90845 0.639906
thorax 2.20951 1.55729 -1.34697
lowerneck -6.70245 -9.03996 -4.46356
upperneck -10.3438 -11.0619 9.27281
head -1.33685 -5.38586 3.59851
rclavicle -3.57812e-015 2.34566e-014
rhumerus -25.8327 28.14 -90.5648
rradius 27.8764
rwrist -5.89055
rhand -11.6991 2.20188
rfingers 7.12502
rthumb 14.347 -27.2824
lclavicle -3.57812e-015 2.34566e-014
lhumerus -26.8378 -11.4548 90.2192
lradius 15.2521
lwrist 14.9589
lhand -11.0556 -5.52969
lfingers 7.12502
lthumb 14.9669 23.9095
rfemur 18.3285 -1.92412 25.3746
rtibia 17.0615
rfoot -18.0131 -21.0922
rtoes -12.2828
lfemur -27.2403 2.72132 -19.024
ltibia 26.4425
lfoot -10.4973 -7.01423
ltoes -21.7534
237
root 14.9826 17.1689 -2.16595 895.769 75.2042 -181.426
lowerback 18.0133 0.358669 2.6122
upperback 11.434 1.87968 0.477563
thorax 2.23753 1.50258 -1.24156
lowerneck -6.57173 -9.02472 -4.49455
upperneck -9.86102 -11.08 9.45566
head -1.18608 -5.40244 3.65224
rclavicle -1.68967e-014 -3.65764e-014
rhumerus -26.1695 27.8861 -90.8874
rradius 27.6236
rwrist -5.32523
rhand -11.4527 2.14453
rfingers 7.12502
rthumb 14.5844 -27.3227
lclavicle -1.68967e-014 -3.65764e-014
lhumerus -27.1168 -9.96741 89.78
lradius 14.4323
lwrist 12.8413
lhand -10.5844 -5.71488
lfingers 7.12502
lthumb 15.4208 23.6899
rfemur 19.4114 -1.64936 25.4307
rtibia 16.075
rfoot -17.4345 -21.4649
rtoes -13.6107
lfemur -27.2444 2.54557 -19.1115
ltibia 26.5721
lfoot -10.2831 -6.98849
ltoes -21.7852
